<mxfile host="65bd71144e">
    <diagram id="2SNTVfMGyOJZNeLsj5RB" name="Page-1">
        <mxGraphModel dx="636" dy="1533" grid="1" gridSize="10" guides="1" tooltips="1" connect="1" arrows="1" fold="1" page="1" pageScale="1" pageWidth="827" pageHeight="1169" math="0" shadow="0">
            <root>
                <mxCell id="0"/>
                <mxCell id="1" parent="0"/>
                <mxCell id="54" value="" style="rounded=1;whiteSpace=wrap;html=1;fillColor=#cce5ff;strokeColor=#36393d;fontColor=#000000;" vertex="1" parent="1">
                    <mxGeometry x="20" y="270" width="210" height="220" as="geometry"/>
                </mxCell>
                <mxCell id="53" value="" style="rounded=1;whiteSpace=wrap;html=1;fillColor=#cce5ff;strokeColor=#36393d;fontColor=#000000;" vertex="1" parent="1">
                    <mxGeometry x="20" y="-30" width="190" height="290" as="geometry"/>
                </mxCell>
                <mxCell id="27" value="" style="rounded=1;whiteSpace=wrap;html=1;fillColor=#cce5ff;strokeColor=#36393d;fontColor=#000000;" vertex="1" parent="1">
                    <mxGeometry x="250" y="-130" width="400" height="630" as="geometry"/>
                </mxCell>
                <mxCell id="4" style="edgeStyle=none;html=1;entryX=0;entryY=0.5;entryDx=0;entryDy=0;fontColor=#000000;" edge="1" parent="1" source="2" target="3">
                    <mxGeometry relative="1" as="geometry"/>
                </mxCell>
                <mxCell id="2" value="Bounded Context&lt;br&gt;A" style="rounded=1;whiteSpace=wrap;html=1;fillColor=#b0e3e6;strokeColor=#0e8088;fontColor=#000000;" vertex="1" parent="1">
                    <mxGeometry x="80" y="12.5" width="120" height="60" as="geometry"/>
                </mxCell>
                <mxCell id="51" style="edgeStyle=none;html=1;exitX=0.5;exitY=1;exitDx=0;exitDy=0;entryX=0.5;entryY=0;entryDx=0;entryDy=0;strokeWidth=1;fontColor=#000000;" edge="1" parent="1" source="3" target="48">
                    <mxGeometry relative="1" as="geometry"/>
                </mxCell>
                <mxCell id="3" value="Bounded Context&lt;br&gt;B" style="rounded=1;whiteSpace=wrap;html=1;fillColor=#b0e3e6;strokeColor=#0e8088;fontColor=#000000;" vertex="1" parent="1">
                    <mxGeometry x="328" y="12.5" width="120" height="60" as="geometry"/>
                </mxCell>
                <mxCell id="5" value="Domain Event" style="text;html=1;align=center;verticalAlign=middle;resizable=0;points=[];autosize=1;strokeColor=none;fillColor=none;fontColor=#000000;" vertex="1" parent="1">
                    <mxGeometry x="210" y="50" width="100" height="30" as="geometry"/>
                </mxCell>
                <mxCell id="8" style="edgeStyle=none;html=1;entryX=0.25;entryY=1;entryDx=0;entryDy=0;fontColor=#000000;" edge="1" parent="1" source="7" target="2">
                    <mxGeometry relative="1" as="geometry"/>
                </mxCell>
                <mxCell id="9" style="edgeStyle=none;html=1;startArrow=none;fontColor=#000000;" edge="1" parent="1" source="10">
                    <mxGeometry relative="1" as="geometry">
                        <mxPoint x="340" y="220" as="targetPoint"/>
                    </mxGeometry>
                </mxCell>
                <mxCell id="7" value="Data Product&lt;br&gt;(Model A)" style="shape=cylinder;whiteSpace=wrap;html=1;boundedLbl=1;backgroundOutline=1;fillColor=#fff2cc;strokeColor=#d6b656;fontColor=#000000;" vertex="1" parent="1">
                    <mxGeometry x="80" y="180" width="60" height="80" as="geometry"/>
                </mxCell>
                <mxCell id="33" style="edgeStyle=none;html=1;entryX=0.5;entryY=0;entryDx=0;entryDy=0;strokeWidth=1;fontColor=#000000;" edge="1" parent="1" source="10" target="32">
                    <mxGeometry relative="1" as="geometry"/>
                </mxCell>
                <mxCell id="11" value="Bounded Context&lt;br&gt;C" style="rounded=1;whiteSpace=wrap;html=1;fillColor=#b0e3e6;strokeColor=#0e8088;fontColor=#000000;" vertex="1" parent="1">
                    <mxGeometry x="70" y="400" width="120" height="60" as="geometry"/>
                </mxCell>
                <mxCell id="26" value="" style="group;fontColor=#000000;" vertex="1" connectable="0" parent="1">
                    <mxGeometry x="540" y="293" width="90" height="110" as="geometry"/>
                </mxCell>
                <mxCell id="21" value="" style="group;fontColor=#000000;" vertex="1" connectable="0" parent="26">
                    <mxGeometry width="90" height="80" as="geometry"/>
                </mxCell>
                <mxCell id="23" value="" style="whiteSpace=wrap;html=1;aspect=fixed;fillColor=#fad9d5;strokeColor=#ae4132;fontColor=#000000;" vertex="1" parent="21">
                    <mxGeometry x="-5" y="-6" width="90" height="90" as="geometry"/>
                </mxCell>
                <mxCell id="19" value="" style="endArrow=none;html=1;strokeWidth=7;fontColor=#000000;" edge="1" parent="21" target="20">
                    <mxGeometry width="50" height="50" relative="1" as="geometry">
                        <mxPoint x="81" y="74.66666666666667" as="sourcePoint"/>
                        <mxPoint x="40.5" y="37.333333333333336" as="targetPoint"/>
                    </mxGeometry>
                </mxCell>
                <mxCell id="20" value="" style="ellipse;whiteSpace=wrap;html=1;aspect=fixed;fillColor=#fad9d5;strokeColor=#ae4132;fontColor=#000000;" vertex="1" parent="21">
                    <mxGeometry width="57.6" height="57.6" as="geometry"/>
                </mxCell>
                <mxCell id="25" value="Analytics" style="text;html=1;align=center;verticalAlign=middle;resizable=0;points=[];autosize=1;strokeColor=none;fillColor=none;fontColor=#000000;" vertex="1" parent="26">
                    <mxGeometry x="10" y="80" width="70" height="30" as="geometry"/>
                </mxCell>
                <mxCell id="30" style="edgeStyle=none;html=1;entryX=0.325;entryY=0.023;entryDx=0;entryDy=0;entryPerimeter=0;strokeWidth=1;fontColor=#000000;" edge="1" parent="1" source="28" target="11">
                    <mxGeometry relative="1" as="geometry"/>
                </mxCell>
                <mxCell id="31" style="edgeStyle=none;html=1;strokeWidth=1;entryX=0;entryY=0.3;entryDx=0;entryDy=0;fontColor=#000000;" edge="1" parent="1" source="28" target="32">
                    <mxGeometry relative="1" as="geometry">
                        <mxPoint x="240" y="290" as="targetPoint"/>
                    </mxGeometry>
                </mxCell>
                <mxCell id="28" value="Data Product&lt;br&gt;(Model C)" style="shape=cylinder;whiteSpace=wrap;html=1;boundedLbl=1;backgroundOutline=1;fillColor=#fff2cc;strokeColor=#d6b656;fontColor=#000000;" vertex="1" parent="1">
                    <mxGeometry x="80" y="298" width="60" height="80" as="geometry"/>
                </mxCell>
                <mxCell id="38" value="" style="edgeStyle=none;html=1;strokeWidth=1;entryX=0.022;entryY=0.586;entryDx=0;entryDy=0;entryPerimeter=0;fontColor=#000000;" edge="1" parent="1" source="32" target="23">
                    <mxGeometry relative="1" as="geometry"/>
                </mxCell>
                <mxCell id="47" style="edgeStyle=none;html=1;entryX=0;entryY=0.5;entryDx=0;entryDy=0;strokeWidth=1;fontColor=#000000;" edge="1" parent="1" source="32" target="46">
                    <mxGeometry relative="1" as="geometry">
                        <Array as="points">
                            <mxPoint x="480" y="330"/>
                        </Array>
                    </mxGeometry>
                </mxCell>
                <mxCell id="32" value="Data Product&lt;br&gt;(Model A-B-C Aggregated)" style="shape=cylinder;whiteSpace=wrap;html=1;boundedLbl=1;backgroundOutline=1;fillColor=#fff2cc;gradientColor=#ffd966;strokeColor=#d6b656;fontColor=#000000;" vertex="1" parent="1">
                    <mxGeometry x="343" y="310" width="85" height="90" as="geometry"/>
                </mxCell>
                <mxCell id="46" value="Machine&amp;nbsp;&lt;br&gt;Learning" style="whiteSpace=wrap;html=1;aspect=fixed;fillColor=#fad9d5;strokeColor=#ae4132;fontColor=#000000;" vertex="1" parent="1">
                    <mxGeometry x="534" y="180" width="90" height="90" as="geometry"/>
                </mxCell>
                <mxCell id="49" style="edgeStyle=none;html=1;strokeWidth=1;fontColor=#000000;" edge="1" parent="1" source="48" target="32">
                    <mxGeometry relative="1" as="geometry">
                        <Array as="points"/>
                    </mxGeometry>
                </mxCell>
                <mxCell id="48" value="Data Product&lt;br&gt;(Model B)" style="shape=cylinder;whiteSpace=wrap;html=1;boundedLbl=1;backgroundOutline=1;fillColor=#fff2cc;strokeColor=#d6b656;fontColor=#000000;" vertex="1" parent="1">
                    <mxGeometry x="343" y="90" width="90" height="75" as="geometry"/>
                </mxCell>
                <mxCell id="52" value="" style="edgeStyle=none;html=1;endArrow=none;fontColor=#000000;" edge="1" parent="1" source="7" target="10">
                    <mxGeometry relative="1" as="geometry">
                        <mxPoint x="340" y="220" as="targetPoint"/>
                        <mxPoint x="140" y="220" as="sourcePoint"/>
                    </mxGeometry>
                </mxCell>
                <mxCell id="10" value="Data Product&lt;br&gt;(Model A-remodelled)" style="shape=cylinder;whiteSpace=wrap;html=1;boundedLbl=1;backgroundOutline=1;fillColor=#fff2cc;gradientColor=#ffd966;strokeColor=#d6b656;fontColor=#000000;" vertex="1" parent="1">
                    <mxGeometry x="270" y="175" width="90" height="90" as="geometry"/>
                </mxCell>
                <mxCell id="56" value="Business Domain A" style="text;html=1;align=center;verticalAlign=middle;resizable=0;points=[];autosize=1;strokeColor=none;fillColor=none;fontColor=#000000;" vertex="1" parent="1">
                    <mxGeometry x="50" y="-30" width="130" height="30" as="geometry"/>
                </mxCell>
                <mxCell id="57" value="Business Domain B" style="text;html=1;align=center;verticalAlign=middle;resizable=0;points=[];autosize=1;strokeColor=none;fillColor=none;fontColor=#000000;" vertex="1" parent="1">
                    <mxGeometry x="380" y="-120" width="130" height="30" as="geometry"/>
                </mxCell>
                <mxCell id="58" value="Business Domain C" style="text;html=1;align=center;verticalAlign=middle;resizable=0;points=[];autosize=1;strokeColor=none;fillColor=none;fontColor=#000000;" vertex="1" parent="1">
                    <mxGeometry x="60" y="265" width="130" height="30" as="geometry"/>
                </mxCell>
                <mxCell id="59" value="" style="rounded=1;whiteSpace=wrap;html=1;fillColor=#70b0f5;strokeColor=#36393d;fontColor=#000000;" vertex="1" parent="1">
                    <mxGeometry x="780" y="-40" width="210" height="220" as="geometry"/>
                </mxCell>
                <mxCell id="60" value="Operational Domain A" style="text;html=1;align=center;verticalAlign=middle;resizable=0;points=[];autosize=1;strokeColor=none;fillColor=none;fontColor=#000000;" vertex="1" parent="1">
                    <mxGeometry x="825" y="-20" width="140" height="30" as="geometry"/>
                </mxCell>
            </root>
        </mxGraphModel>
    </diagram>
</mxfile>